<svg xmlns="http://www.w3.org/2000/svg" width="1100" height="210" viewBox="0 0 1100 210" role="img" aria-label="O Guardião dos Pull Requests — Alexandre Carlos, Mestre do Front-End"><title>O Guardião dos Pull Requests — Alexandre Carlos, Mestre do Front-End</title><defs><linearGradient id="bg" x2="1" y2="1"><stop stop-color="#191022"/><stop offset="1" stop-color="#090c12"/></linearGradient><pattern id="lines" width="4" height="4" patternUnits="userSpaceOnUse"><path d="M0 0H4" stroke="#ffffff" stroke-opacity=".025"/></pattern></defs><rect x="1" y="1" width="1098" height="208" rx="12" fill="url(#bg)" stroke="#513665"/><g transform="translate(0 0) scale(1)" fill="none" stroke="#b8a7dd" stroke-width="1" opacity=".38"><path d="M0 0L150 0M0 0L144 48M0 0L106 106M0 0L48 144M0 0V150M30 0Q25 9 29 10Q23 18 21 21Q12 23 10 29Q4 25 0 30M60 0Q50 18 58 19Q45 36 42 42Q24 46 19 58Q8 50 0 60M90 0Q75 27 86 29Q68 54 64 64Q36 69 29 86Q12 75 0 90M120 0Q100 36 115 38Q90 72 85 85Q48 92 38 115Q16 100 0 120M150 0Q125 45 144 48Q113 90 106 106Q60 115 48 144Q20 125 0 150"/></g><g transform="translate(76 63) scale(1.15)"><path d="M0 76V32C0 -10 64 -10 64 32V76L53 67L42 77L32 67L21 77L10 67Z" fill="#ded8ff"/><ellipse cx="22" cy="31" rx="5" ry="8" fill="#181226"/><ellipse cx="43" cy="31" rx="5" ry="8" fill="#181226"/><ellipse cx="33" cy="50" rx="5" ry="6" fill="#181226"/></g><text x="204" y="47" fill="#c5ec9e" font-family="monospace" font-size="12" letter-spacing="3">ENTIDADE DETECTADA / CODE REVIEW</text><text x="204" y="92" fill="#eee8fa" font-family="Georgia,serif" font-size="31">O Guardião dos Pull Requests</text><text x="204" y="125" fill="#b395ee" font-family="Arial,sans-serif" font-size="18">Alexandre Carlos · Mestre do Front-End</text><text x="204" y="163" fill="#b8adc6" font-family="Arial,sans-serif" font-size="16">Revisa commits. Caça bugs. Sabe quando você não leu o README.</text></svg>